<?xml version="1.0" encoding="utf-8"?>
<!-- Generator: Adobe Illustrator 16.0.0, SVG Export Plug-In . SVG Version: 6.00 Build 0)  -->
<!DOCTYPE svg PUBLIC "-//W3C//DTD SVG 1.1//EN" "http://www.w3.org/Graphics/SVG/1.1/DTD/svg11.dtd">
<svg xmlns="http://www.w3.org/2000/svg" viewbox="0 0 240 240" style="overflow:visible;">
						  <style>
						    line {
						      stroke:#0f0;
						      stroke-width:0.5;
						    }
						    text {
						    	fill:#0f0;
						    }
						    .main {
						      stroke-width:1;
						    }
						  </style>
						  	<g id="gameMainLines" data-enabled="true">
							  <line x1="0" y1="0" x2="240" y2="0" class="main" />
							  <line x1="0" y1="60" x2="240" y2="60" class="main" />
							  <line x1="0" y1="120" x2="240" y2="120" class="main" />
							  <line x1="0" y1="180" x2="240" y2="180" class="main" />
							  <line x1="0" y1="240" x2="240" y2="240" class="main" />

							  <line x1="0" y1="0" x2="0" y2="240" class="main" />
							  <line x1="60" y1="0" x2="60" y2="240" class="main" />
							  <line x1="120" y1="0" x2="120" y2="240" class="main" />
							  <line x1="180" y1="0" x2="180" y2="240" class="main" />
							  <line x1="240" y1="0" x2="240" y2="240" class="main" />
							</g>
							<g id="gameSecondaryLines" data-enabled="true">

							  <line x1="0" y1="10" x2="240" y2="10" />
							  <line x1="0" y1="20" x2="240" y2="20" />
							  <line x1="0" y1="30" x2="240" y2="30" />
							  <line x1="0" y1="40" x2="240" y2="40" />
							  <line x1="0" y1="50" x2="240" y2="50" />

							  <line x1="0" y1="70" x2="240" y2="70" />
							  <line x1="0" y1="80" x2="240" y2="80" />
							  <line x1="0" y1="90" x2="240" y2="90" />
							  <line x1="0" y1="100" x2="240" y2="100" />
							  <line x1="0" y1="110" x2="240" y2="110" />

							  <line x1="0" y1="130" x2="240" y2="130" />
							  <line x1="0" y1="140" x2="240" y2="140" />
							  <line x1="0" y1="150" x2="240" y2="150" />
							  <line x1="0" y1="160" x2="240" y2="160" />
							  <line x1="0" y1="170" x2="240" y2="170" />

							  <line x1="0" y1="190" x2="240" y2="190" />
							  <line x1="0" y1="200" x2="240" y2="200" />
							  <line x1="0" y1="210" x2="240" y2="210" />
							  <line x1="0" y1="220" x2="240" y2="220" />
							  <line x1="0" y1="230" x2="240" y2="230" />

							  <line y1="0" x1="10" y2="240" x2="10" />
							  <line y1="0" x1="20" y2="240" x2="20" />
							  <line y1="0" x1="30" y2="240" x2="30" />
							  <line y1="0" x1="40" y2="240" x2="40" />
							  <line y1="0" x1="50" y2="240" x2="50" />

							  <line y1="0" x1="70" y2="240" x2="70" />
							  <line y1="0" x1="80" y2="240" x2="80" />
							  <line y1="0" x1="90" y2="240" x2="90" />
							  <line y1="0" x1="100" y2="240" x2="100" />
							  <line y1="0" x1="110" y2="240" x2="110" />

							  <line y1="0" x1="130" y2="240" x2="130" />
							  <line y1="0" x1="140" y2="240" x2="140" />
							  <line y1="0" x1="150" y2="240" x2="150" />
							  <line y1="0" x1="160" y2="240" x2="160" />
							  <line y1="0" x1="170" y2="240" x2="170" />

							  <line y1="0" x1="190" y2="240" x2="190" />
							  <line y1="0" x1="200" y2="240" x2="200" />
							  <line y1="0" x1="210" y2="240" x2="210" />
							  <line y1="0" x1="220" y2="240" x2="220" />
							  <line y1="0" x1="230" y2="240" x2="230" />
							</g>
							<g id="gameChars" font-family="'MyriadPro-Regular'" font-size="8" data-enabled="true">
								<text id="3__3" transform="matrix(1 0 0 1 182 58)">A</text>
								<text id="3__2" transform="matrix(1 0 0 1 122 58)">B</text>
								<text id="3__1" transform="matrix(1 0 0 1 62 58)">C</text>
								<text id="3__0" transform="matrix(1 0 0 1 2 58)">D</text>
								<text id="2__3" transform="matrix(1 0 0 1 182 117.9995)">E</text>
								<text id="2__2" transform="matrix(1 0 0 1 122 117.9995)">F</text>
								<text id="2__1" transform="matrix(1 0 0 1 62 117.9995)">G</text>
								<text id="2__0" transform="matrix(1 0 0 1 2 117.9995)">H</text>
								<text id="1__3" transform="matrix(1 0 0 1 182 178)">I</text>
								<text id="1__2" transform="matrix(1 0 0 1 122 178)">J</text>
								<text id="1__1" transform="matrix(1 0 0 1 62 178)">K</text>
								<text id="1__0" transform="matrix(1 0 0 1 2 178)">L</text>
								<text id="0__3" transform="matrix(1 0 0 1 182 238)">M</text>
								<text id="0__2" transform="matrix(1 0 0 1 122 238)">N</text>
								<text id="0__1" transform="matrix(1 0 0 1 62 238)">O</text>
								<text id="0__0" transform="matrix(1 0 0 1 2 238)">P</text>
							</g>
						</svg>
