<svg xmlns="http://www.w3.org/2000/svg" width="240" height="240" style="overflow:visible;">
  <style>
    text {
      fill:#00ff00;
      font-size: 7px;
      font-family:courier;
      transform: translate(-2px, 2.5px);
      font-weight:100;
    }
  </style>
   <text x="0" y="0">*</text>
   <text x="20" y="0">*</text>
   <text x="40" y="0">*</text>
   <text x="60" y="0">*</text>
   <text x="80" y="0">*</text>
   <text x="100" y="0">*</text>
  <text x="120" y="0">*</text>
  <text x="140" y="0">*</text>
  <text x="160" y="0">*</text>
  <text x="180" y="0">*</text>
  <text x="200" y="0">*</text>
  <text x="220" y="0">*</text>
  <text x="240" y="0">*</text>
  
  <text x="0"   y="20">*</text>
  <text x="60"  y="20">*</text>
  <text x="120" y="20">*</text>
  <text x="180" y="20">*</text>
  <text x="240" y="20">*</text>
  
  <text x="0"   y="40">*</text>
  <text x="60"  y="40">*</text>
  <text x="120" y="40">*</text>
  <text x="180" y="40">*</text>
  <text x="240" y="40">*</text>
  
   <text x="0"  y="60">*</text>
   <text x="20" y="60">*</text>
   <text x="40" y="60">*</text>
   <text x="60" y="60">*</text>
   <text x="80" y="60">*</text>
  <text x="100" y="60">*</text>
  <text x="120" y="60">*</text>
  <text x="140" y="60">*</text>
  <text x="160" y="60">*</text>
  <text x="180" y="60">*</text>
  <text x="200" y="60">*</text>
  <text x="220" y="60">*</text>
  <text x="240" y="60">*</text>
  
  <text x="0"   y="80">*</text>
  <text x="60"  y="80">*</text>
  <text x="120" y="80">*</text>
  <text x="180" y="80">*</text>
  <text x="240" y="80">*</text>
  
  <text x="0"   y="100">*</text>
  <text x="60"  y="100">*</text>
  <text x="120" y="100">*</text>
  <text x="180" y="100">*</text>
  <text x="240" y="100">*</text>
  
   <text x="0"  y="120">*</text>
   <text x="20" y="120">*</text>
   <text x="40" y="120">*</text>
   <text x="60" y="120">*</text>
   <text x="80" y="120">*</text>
  <text x="100" y="120">*</text>
  <text x="120" y="120">*</text>
  <text x="140" y="120">*</text>
  <text x="160" y="120">*</text>
  <text x="180" y="120">*</text>
  <text x="200" y="120">*</text>
  <text x="220" y="120">*</text>
  <text x="240" y="120">*</text>
  
  <text x="0"   y="140">*</text>
  <text x="60"  y="140">*</text>
  <text x="120" y="140">*</text>
  <text x="180" y="140">*</text>
  <text x="240" y="140">*</text>
  
  <text x="0"   y="160">*</text>
  <text x="60"  y="160">*</text>
  <text x="120" y="160">*</text>
  <text x="180" y="160">*</text>
  <text x="240" y="160">*</text>
  
    <text x="0" y="180">*</text>
   <text x="20" y="180">*</text>
   <text x="40" y="180">*</text>
   <text x="60" y="180">*</text>
   <text x="80" y="180">*</text>
  <text x="100" y="180">*</text>
  <text x="120" y="180">*</text>
  <text x="140" y="180">*</text>
  <text x="160" y="180">*</text>
  <text x="180" y="180">*</text>
  <text x="200" y="180">*</text>
  <text x="220" y="180">*</text>
  <text x="240" y="180">*</text>
  
  <text x="0"   y="200">*</text>
  <text x="60"  y="200">*</text>
  <text x="120" y="200">*</text>
  <text x="180" y="200">*</text>
  <text x="240" y="200">*</text>
  
  <text x="0"   y="220">*</text>
  <text x="60"  y="220">*</text>
  <text x="120" y="220">*</text>
  <text x="180" y="220">*</text>
  <text x="240" y="220">*</text>
  
    <text x="0" y="240">*</text>
   <text x="20" y="240">*</text>
   <text x="40" y="240">*</text>
   <text x="60" y="240">*</text>
   <text x="80" y="240">*</text>
  <text x="100" y="240">*</text>
  <text x="120" y="240">*</text>
  <text x="140" y="240">*</text>
  <text x="160" y="240">*</text>
  <text x="180" y="240">*</text>
  <text x="200" y="240">*</text>
  <text x="220" y="240">*</text>
  <text x="240" y="240">*</text>
</svg>