<?xml version="1.0" encoding="utf-8"?>
<!-- Svg Vector Icons : http://www.onlinewebfonts.com/icon -->
<!DOCTYPE svg PUBLIC "-//W3C//DTD SVG 1.1//EN" "http://www.w3.org/Graphics/SVG/1.1/DTD/svg11.dtd">
<svg version="1.1" xmlns="http://www.w3.org/2000/svg" xmlns:xlink="http://www.w3.org/1999/xlink" x="0px" y="0px" viewBox="0 0 1000 1000" enable-background="new 0 0 1000 1000" xml:space="preserve">
<metadata> Svg Vector Icons : http://www.onlinewebfonts.com/icon </metadata>
<g><g transform="translate(0.000000,512.000000) scale(0.100000,-0.100000)"><path d="M9524.9,4986c-327.7-118.8-1038.8-519.4-1667.5-939.2c-628.7-419.8-511.7-310.5-3143.4-2938.3L2270.3-1331.3l-371.8,86.3c-205.1,46-429.3,90.1-500.2,95.8c-149.5,15.3-291.3-19.2-417.8-101.6c-107.3-69-801.2-868.3-851-981.3c-76.7-166.8,1.9-366.1,178.3-456.2c47.9-24.9,297.1-95.8,553.9-159.1l469.6-115l291.3-293.3l293.3-291.3l115-469.6c63.2-256.8,134.2-506,159.1-553.9c90.1-174.4,297.1-256.8,460-180.2c109.3,51.8,904.7,743.7,971.8,847.2c86.3,128.4,122.7,270.2,107.3,423.6c-5.7,70.9-49.8,295.2-95.8,500.2l-86.3,371.8l2440,2443.8c2250.2,2254,2455.3,2464.9,2629.7,2702.5C9017,3080.9,9459.7,3799.6,9728.1,4344c155.3,318.2,191.7,437,162.9,530.9C9846.9,5016.7,9716.6,5055,9524.9,4986z M9247,4269.2c-132.3-251.1-467.7-808.8-647.8-1079.1c-161-239.6-469.6-651.7-488.8-651.7c-17.3,0-693.8,676.6-693.8,693.8c0,23,440.8,348.8,705.3,521.3c394.8,258.8,1178.8,718.8,1226.7,720.7C9352.4,4474.3,9306.4,4382.3,9247,4269.2z M5601.5,4.6L3362.8-2234.1l-82.4,28.8c-105.4,36.4-210.8,21.1-316.3-49.8c-44.1-28.8-264.5-239.6-490.7-467.7l-412.1-414l-159.1,161l-161,159.1l414,412.1c228.1,226.2,438.9,446.6,467.7,490.7c70.9,105.4,86.3,210.8,49.8,316.2l-28.8,82.4L4882.7,721.4l2236.8,2238.7l358.4-358.4l360.3-360.3L5601.5,4.6z M1835.2-1632.3c218.5-49.8,402.5-95.8,412.1-101.6c21.1-21.1-753.3-776.3-826.1-805c-55.6-23-97.8-17.3-479.2,74.7c-228.1,55.6-419.8,103.5-423.6,107.3c-13.4,11.5,592.3,705.3,663.2,760.9C1279.3-1523,1363.7-1526.8,1835.2-1632.3z M3245.8-3039.1c105.4-467.7,109.3-559.7,36.4-657.4c-53.7-69-749.4-674.7-760.9-663.2c-3.8,3.8-51.8,195.5-107.3,423.6c-92,379.5-97.8,423.6-74.8,479.2c26.8,72.8,783.9,847.2,805,826.1C3150-2640.4,3196-2822.5,3245.8-3039.1z"/></g></g>
</svg>