<?xml version="1.0" encoding="utf-8"?>
<!-- (c) ammap.com | SVG map of World High -->
<svg xmlns="http://www.w3.org/2000/svg" xmlns:amcharts="http://amcharts.com/ammap" xmlns:xlink="http://www.w3.org/1999/xlink" version="1.1" width="436" height="332">
	<defs>
		<style type="text/css">
			.land
			{
				fill: #CCCCCC;
				fill-opacity: 0;
				stroke:black;
				stroke-opacity: 1;
				stroke-width:0.05
			}
			g {
				transform: translate(-2725px, -1752px) scale(5);
			}
		</style>

		<amcharts:ammap projection="mercator" leftLongitude="-169.110266" topLatitude="83.63001" rightLongitude="190.480712" bottomLatitude="-58.488473"></amcharts:ammap>

		<!-- All areas are listed in the line below. You can use this list in your script. -->
		<!--{id:"AD"},{id:"AE"},{id:"AF"},{id:"AG"},{id:"AI"},{id:"AL"},{id:"AM"},{id:"AO"},{id:"AR"},{id:"AS"},{id:"AT"},{id:"AU"},{id:"AW"},{id:"AX"},{id:"AZ"},{id:"BA"},{id:"BB"},{id:"BD"},{id:"BE"},{id:"BF"},{id:"BG"},{id:"BH"},{id:"BI"},{id:"BJ"},{id:"BL"},{id:"BN"},{id:"BO"},{id:"BM"},{id:"BQ"},{id:"BR"},{id:"BS"},{id:"BT"},{id:"BV"},{id:"BW"},{id:"BY"},{id:"BZ"},{id:"CA"},{id:"CC"},{id:"CD"},{id:"CF"},{id:"CG"},{id:"CH"},{id:"CI"},{id:"CK"},{id:"CL"},{id:"CM"},{id:"CN"},{id:"CO"},{id:"CR"},{id:"CU"},{id:"CV"},{id:"CW"},{id:"CX"},{id:"CY"},{id:"CZ"},{id:"DE"},{id:"DJ"},{id:"DK"},{id:"DM"},{id:"DO"},{id:"DZ"},{id:"EC"},{id:"EG"},{id:"EE"},{id:"EH"},{id:"ER"},{id:"ES"},{id:"ET"},{id:"FI"},{id:"FJ"},{id:"FK"},{id:"FM"},{id:"FO"},{id:"FR"},{id:"GA"},{id:"GB"},{id:"GE"},{id:"GD"},{id:"GF"},{id:"GG"},{id:"GH"},{id:"GI"},{id:"GL"},{id:"GM"},{id:"GN"},{id:"GO"},{id:"GP"},{id:"GQ"},{id:"GR"},{id:"GS"},{id:"GT"},{id:"GU"},{id:"GW"},{id:"GY"},{id:"HK"},{id:"HM"},{id:"HN"},{id:"HR"},{id:"HT"},{id:"HU"},{id:"ID"},{id:"IE"},{id:"IL"},{id:"IM"},{id:"IN"},{id:"IO"},{id:"IQ"},{id:"IR"},{id:"IS"},{id:"IT"},{id:"JE"},{id:"JM"},{id:"JO"},{id:"JP"},{id:"JU"},{id:"KE"},{id:"KG"},{id:"KH"},{id:"KI"},{id:"KM"},{id:"KN"},{id:"KP"},{id:"KR"},{id:"XK"},{id:"KW"},{id:"KY"},{id:"KZ"},{id:"LA"},{id:"LB"},{id:"LC"},{id:"LI"},{id:"LK"},{id:"LR"},{id:"LS"},{id:"LT"},{id:"LU"},{id:"LV"},{id:"LY"},{id:"MA"},{id:"MC"},{id:"MD"},{id:"MG"},{id:"ME"},{id:"MF"},{id:"MH"},{id:"MK"},{id:"ML"},{id:"MO"},{id:"MM"},{id:"MN"},{id:"MP"},{id:"MQ"},{id:"MR"},{id:"MS"},{id:"MT"},{id:"MU"},{id:"MV"},{id:"MW"},{id:"MX"},{id:"MY"},{id:"MZ"},{id:"NA"},{id:"NC"},{id:"NE"},{id:"NF"},{id:"NG"},{id:"NI"},{id:"NL"},{id:"NO"},{id:"NP"},{id:"NR"},{id:"NU"},{id:"NZ"},{id:"OM"},{id:"PA"},{id:"PE"},{id:"PF"},{id:"PG"},{id:"PH"},{id:"PK"},{id:"PL"},{id:"PM"},{id:"PN"},{id:"PR"},{id:"PS"},{id:"PT"},{id:"PW"},{id:"PY"},{id:"QA"},{id:"RE"},{id:"RO"},{id:"RS"},{id:"RU"},{id:"RW"},{id:"SA"},{id:"SB"},{id:"SC"},{id:"SD"},{id:"SE"},{id:"SG"},{id:"SH"},{id:"SI"},{id:"SJ"},{id:"SK"},{id:"SL"},{id:"SM"},{id:"SN"},{id:"SO"},{id:"SR"},{id:"SS"},{id:"ST"},{id:"SV"},{id:"SX"},{id:"SY"},{id:"SZ"},{id:"TC"},{id:"TD"},{id:"TF"},{id:"TG"},{id:"TH"},{id:"TJ"},{id:"TK"},{id:"TL"},{id:"TM"},{id:"TN"},{id:"TO"},{id:"TR"},{id:"TT"},{id:"TV"},{id:"TW"},{id:"TZ"},{id:"UA"},{id:"UG"},{id:"UM-DQ"},{id:"UM-FQ"},{id:"UM-HQ"},{id:"UM-JQ"},{id:"UM-MQ"},{id:"UM-WQ"},{id:"US"},{id:"UY"},{id:"UZ"},{id:"VA"},{id:"VC"},{id:"VE"},{id:"VG"},{id:"VI"},{id:"VN"},{id:"VU"},{id:"WF"},{id:"WS"},{id:"YE"},{id:"YT"},{id:"ZA"},{id:"ZM"},{id:"ZW"}-->

	</defs>
	<g>
		<path id="CY" title="Cyprus" class="land" d="M572.42,356.28L570.957,357.314L570.862,357.621L570.927,357.833L571.133,358.09L571.187,358.157L571.261,358.352L570.942,358.41L570.622,358.429L570.444,358.403L570.276,358.415L569.757,358.972L569.478,359.161L569.146,359.273L568.808,359.34L568.638,359.349L568.488,359.419L568.383,359.548L568.381,359.673L568.336,359.776L568.15,359.755L568.073,359.553L567.941,359.466L567.612,359.511L567.452,359.505L566.926,359.313L566.767,359.233L566.668,359.068L566.397,358.472L566.352,358.029L566.604,358.143L566.84,358.005L567.067,357.78L567.338,357.688L567.507,357.728L567.675,357.768L567.977,357.696L568.107,357.362L568.15,356.978L568.66,357.088L569.178,357.145L569.601,357.164L570.019,357.102L571.298,356.691L571.66,356.445L571.885,356.361L572.274,356.158L572.681,356.045z"/>


		<path id="EG" title="Egypt" class="land" d="M571.676,370.587L571.717,370.686L571.809,370.96L572.042,371.656L572.246,372.2L572.495,372.952L572.573,373.24L572.606,373.439L572.968,374.263L573.183,374.938L573.34,375.486L573.562,376.284L573.658,376.562L573.501,376.707L573.187,377.224L572.852,378.861L572.373,380.134L572.319,380.929L572.242,381.215L572.014,381.617L571.738,382.01L571.247,381.807L570.447,381.115L569.981,380.457L569.481,380.031L569.009,379.466L568.88,379.059L568.885,378.797L568.679,378.158L568.526,377.855L567.95,377.174L567.785,376.81L567.659,376.649L567.532,376.419L567.323,375.53L567.095,374.964L566.835,375.121L566.881,375.359L566.654,375.688L566.517,376.069L566.622,376.38L567.093,376.853L567.188,377.06L567.298,377.507L567.28,378.114L567.356,378.319L567.709,378.769L567.835,379.036L567.911,379.266L568.028,379.474L568.378,379.864L568.881,380.606L569.358,381.106L569.703,381.347L569.849,381.588L569.882,382.209L569.856,382.505L570.159,383.062L570.271,383.343L570.563,383.572L570.697,383.833L570.82,384.258L571.005,385.511L571.259,385.818L572.044,387.457L572.706,388.49L573.026,389.26L573.515,390.194L574.472,392.238L575.041,392.866L575.268,393.219L575.68,393.49L576.126,393.882L575.701,393.844L575.593,393.867L575.444,393.934L575.373,394.172L575.342,394.366L575.394,395.391L575.511,395.913L575.885,396.898L576.164,397.193L576.3,397.384L576.49,397.523L577.377,397.859L577.896,398.567L579.062,399.461L579.176,399.708L579.179,399.765L578.258,399.766L577.337,399.766L576.416,399.766L575.495,399.766L574.575,399.766L573.653,399.767L572.733,399.767L571.812,399.767L570.891,399.767L569.97,399.767L569.049,399.767L568.129,399.767L567.208,399.768L566.287,399.768L565.366,399.768L564.445,399.768L563.92,399.768L564.01,399.5L564.065,399.311L564.003,399.179L563.824,399.146L563.707,399.188L563.432,399.749L563.288,399.771L562.961,399.771L561.889,399.771L560.816,399.771L559.744,399.771L558.672,399.77L557.6,399.77L556.528,399.77L555.456,399.77L554.384,399.77L553.312,399.769L552.239,399.769L551.167,399.769L550.095,399.769L549.023,399.769L547.951,399.769L546.878,399.768L545.806,399.768L545.806,399.092L545.806,398.414L545.806,397.735L545.806,397.056L545.806,396.375L545.806,395.693L545.806,395.01L545.806,394.326L545.806,393.64L545.806,392.954L545.806,392.266L545.806,391.576L545.806,390.886L545.806,390.194L545.806,389.501L545.806,388.807L545.806,388.111L545.806,387.414L545.806,386.716L545.806,386.017L545.806,385.315L545.806,384.613L545.806,383.909L545.806,383.204L545.806,382.497L545.806,381.789L545.806,381.079L545.806,380.368L545.806,379.655L545.806,378.941L545.806,378.225L545.806,377.508L545.782,377.374L545.626,376.885L545.485,376.263L545.331,375.497L545.311,375.248L545.053,374.456L545.029,374.231L545.094,374.071L545.518,373.402L545.646,373.076L545.753,372.685L545.789,372.367L545.664,371.879L545.518,371.44L545.469,370.99L545.448,370.547L545.665,370.244L545.925,369.96L546.022,369.786L546.176,369.59L546.284,369.498L546.495,369.896L546.935,369.964L548.369,369.61L549.952,369.967L550.825,370.103L552.171,370.406L552.99,370.946L553.215,371.014L553.804,371.003L554.19,371.322L555.726,371.475L556.546,371.826L557.011,372.106L557.29,372.192L557.537,372.178L557.87,372.073L558.291,371.876L558.748,371.602L559.697,370.897L560.033,370.773L560.252,370.806L560.519,370.796L560.63,370.605L560.771,370.474L560.859,370.325L561.003,370.145L561.497,370.095L562.486,369.787L562.375,369.933L561.474,370.278L561.86,370.321L562.255,370.203L562.706,370.128L562.788,369.981L562.847,369.706L562.933,369.667L563.245,369.719L564.172,370.143L564.403,370.151L565.056,369.92L565.195,369.871L565.407,369.999L565.889,370.526L565.721,370.515L565.205,370.063L565.159,370.289L564.865,370.685L565.232,370.856L565.531,370.92L565.691,371.141L565.792,371.337L566.087,371.251L566.298,370.984L566.188,370.835L566.114,370.681L566.21,370.677L566.415,370.804L567.002,371.311L567.2,371.416L567.428,371.398L567.905,371.256L568.038,371.278L568.678,371.091L568.753,371.228L568.859,371.364L569.375,371.212L570.184,371.214L570.847,371.049L571.615,370.647z"/>



		<path id="IL" title="Israel" class="land" d="M576.136,365.934L575.988,365.954L575.642,366.109L575.595,366.156L575.534,366.246L575.523,366.315L575.474,367.059L575.286,367.038L575.057,366.876L575.012,366.736L574.943,366.688L574.779,366.67L574.469,366.599L574.109,366.844L573.956,367.248L573.925,367.437L573.803,367.833L573.846,368.077L573.867,368.392L573.898,368.649L573.866,368.804L573.797,368.886L573.817,368.945L573.879,368.967L574.076,368.897L574.283,368.967L574.482,369.1L574.498,369.186L574.357,369.237L574.024,369.438L573.789,369.671L573.728,369.886L573.569,370.344L573.591,370.438L573.668,370.493L574.21,370.444L574.703,370.259L575.074,370.062L575.191,370.074L575.113,370.578L575.115,370.58L575.051,370.888L575.076,370.94L575.16,371.208L575.001,371.697L574.825,372.095L574.763,372.283L574.591,372.702L574.415,373.187L574.321,373.521L574.342,373.639L574.299,374.25L574.324,374.423L574.118,374.952L574.077,375.213L573.994,375.566L573.852,376.312L573.658,376.562L573.562,376.284L573.34,375.486L573.183,374.938L572.968,374.263L572.606,373.439L572.573,373.24L572.495,372.952L572.246,372.2L572.042,371.656L571.809,370.96L572.098,370.684L572.103,370.456L572.595,369.922L572.591,369.87L572.46,369.728L572.479,369.704L573.024,368.707L573.376,367.717L573.707,366.334L573.943,365.629L574.143,365.161L574.231,364.773L574.553,364.746L574.793,364.787L575.081,364.8L575.311,364.654L575.421,364.217L575.552,364.146L575.619,364.25L575.687,364.135L575.988,363.942L576.137,363.818L576.286,363.665L576.366,363.61L576.316,363.815L576.276,363.949L576.276,364.124L576.337,364.22L576.42,364.41L576.471,364.6L576.363,364.757L576.373,364.921L576.402,365.059L576.49,365.22L576.332,365.51L576.176,365.776z"/>


		<path id="JO" title="Jordan" class="land" d="M585.561,367.954L585.145,368.339L585.047,368.381L584.506,368.54L583.4,368.866L582.659,369.084L581.711,369.362L580.924,369.594L580.145,369.822L579.423,370.034L579.835,370.48L580.464,371.161L580.884,371.614L581.379,372.196L581.821,372.715L582.29,373.264L581.961,373.45L581.419,373.756L581.364,373.812L581.317,373.869L581.093,374.414L580.917,374.843L580.856,374.896L580.1,375.054L579.335,375.212L578.853,375.313L578.708,375.423L578.394,375.956L578.069,376.504L577.527,376.952L576.925,377.448L576.776,377.48L576.341,377.404L575.597,377.274L574.878,377.148L574.386,377.063L573.789,376.958L573.876,376.539L573.852,376.312L573.994,375.566L574.077,375.213L574.118,374.952L574.324,374.423L574.299,374.25L574.342,373.639L574.321,373.521L574.415,373.187L574.591,372.702L574.763,372.283L574.825,372.095L575.001,371.697L575.16,371.208L575.076,370.94L575.051,370.888L575.115,370.58L575.113,370.578L575.191,370.074L575.233,369.802L575.328,369.441L575.496,369.135L575.418,368.414L575.427,368.024L575.532,367.58L575.474,367.059L575.523,366.315L575.534,366.246L575.595,366.156L575.642,366.109L575.988,365.954L576.136,365.934L576.438,366.004L576.611,366.16L576.9,366.601L577.35,366.729L577.531,366.854L577.777,367.087L578.078,367.172L579.03,367.317L579.789,366.827L580.431,366.412L581.16,365.94L581.656,365.618L582.502,365.069L583.06,364.722L583.793,364.263L584.517,363.81L584.718,364.549L584.914,365.27L585.117,366.014L585.315,366.735L585.101,366.804L585.269,367.355L585.546,367.271L585.847,367.206L585.974,367.56z"/>

		<path id="LB" title="Lebanon" class="land" d="M576.366,363.61L576.286,363.665L576.137,363.818L575.988,363.942L575.687,364.135L575.619,364.25L575.552,364.146L575.421,364.217L575.311,364.654L575.081,364.8L574.793,364.787L574.553,364.746L574.231,364.773L574.362,364.519L574.498,364.188L574.632,363.742L574.869,363.371L575.36,362.107L575.644,361.594L575.745,360.864L576.184,360.225L576.512,360.035L576.671,359.852L576.667,359.574L577.157,359.576L577.473,359.562L577.564,359.406L577.811,359.477L577.948,359.627L577.824,359.786L577.649,359.967L577.659,360.014L577.79,360.029L578.012,360.127L578.148,360.242L578.375,360.956L578.235,361.249L578.017,361.511L577.92,361.534L577.729,361.664L577.569,361.842L577.513,361.954L577.525,362.059L577.751,362.19L577.758,362.243L577.711,362.285L577.528,362.256L577.292,362.242L577.153,362.243L576.992,362.269L576.786,362.429L576.694,362.535L576.645,362.603L576.571,362.82L576.654,362.969L576.808,363.054L576.83,363.097L576.795,363.172L576.642,363.266L576.527,363.381L576.494,363.498z"/>

		<path id="PS" title="Palestinian Territories" class="land" d="M572.098,370.684l-0.289,0.276l-0.092,-0.274l-0.041,-0.099l0.531,-0.527l0.253,-0.332l0.131,0.142l0.004,0.053l-0.492,0.533L572.098,370.684zM575.418,368.414l0.077,0.722l-0.167,0.306l-0.095,0.361l-0.042,0.272l-0.117,-0.012l-0.371,0.197l-0.493,0.186l-0.542,0.048l-0.077,-0.055l-0.022,-0.094l0.159,-0.458l0.061,-0.215l0.235,-0.232l0.333,-0.201l0.141,-0.051l-0.016,-0.086l-0.199,-0.133l-0.208,-0.069l-0.197,0.069l-0.062,-0.021l-0.021,-0.059l0.069,-0.083l0.032,-0.154l-0.031,-0.258l-0.021,-0.314l-0.043,-0.244l0.123,-0.396l0.031,-0.189l0.153,-0.404l0.359,-0.245l0.311,0.071l0.164,0.018l0.069,0.048l0.045,0.14l0.229,0.162l0.188,0.021l0.058,0.521l-0.105,0.445L575.418,368.414z"/>


		<path id="SA" title="Saudi Arabia" class="land" d="M606.29,377.781l0.542,0.069l0.723,0.092l0.439,0.063l0.826,0.117l0.247,0.484l0.09,0.339l0.083,0.33l0.248,0.301l0.563,-0.007l0.499,-0.006l0.615,-0.01l0.488,-0.007l0.157,0.299l0.069,0.298l0.29,0.705l0.414,0.549l0.099,0.2l0.066,0.301l-0.072,0.112l-0.028,0.129l0.307,0.3l0.506,0.254l0.198,0.064l0.225,0.112l-0.175,0.173l0.299,0.4l0.347,0.407l0.372,0.092l0.502,0.614l0.757,0.397l0.459,0.52l-0.043,0.01l-0.135,-0.053l-0.169,-0.071l-0.051,0.064l0.009,0.218l0.045,0.256l0.234,0.221l0.208,0.159l0.081,0.301l-0.164,0.647l-0.057,0l-0.11,-0.056l-0.117,-0.013l-0.063,0.037l0.139,0.465l0.139,0.356l0.166,0.282l0.139,0.412l0.119,0.176l0.487,0.437l0.15,0.365l0.139,0.679l0.306,0.378l0.165,0.291l0.221,0.247l0.144,0.337l0.204,0.259l0.106,0.065l0.159,0.027l0.198,0.001l0.237,-0.067l0.253,-0.063l0.197,0.131l0.204,-0.02l0.021,0.122l-0.137,0.166l-0.168,0.418l0.239,0.066l0.229,0.033l0.162,0.067h0.095v0.087l0.011,0.396l0.057,0.151l0.104,0.134l0.154,0.2l0.154,0.2l0.154,0.2l0.154,0.2l0.154,0.2l0.155,0.2l0.154,0.199l0.154,0.2l0.154,0.199l0.154,0.199l0.154,0.199l0.154,0.199l0.154,0.199l0.154,0.199l0.155,0.199l0.154,0.198l0.127,0.164l0.236,0.031l0.075,0.01l0.213,0.028l0.33,0.043l0.428,0.057l0.507,0.067l0.565,0.074l0.605,0.08l0.624,0.082l0.625,0.082l0.604,0.08l0.565,0.075l0.507,0.066l0.429,0.057l0.33,0.043l0.213,0.028l0.075,0.01l0.223,0.029l0.042,-0.007l0.187,-0.243l0.206,0.343l0.171,0.284l0.234,0.39l0.25,0.414l0.238,0.396l0.178,0.294l-0.095,0.305l-0.103,0.333l-0.103,0.333l-0.103,0.332l-0.104,0.332l-0.103,0.332l-0.103,0.332l-0.103,0.331l-0.103,0.331l-0.104,0.331l-0.103,0.331l-0.103,0.33l-0.103,0.33l-0.104,0.33l-0.103,0.33l-0.103,0.329l-0.103,0.329l-0.124,0.396l-0.299,0.105l-0.482,0.17l-0.483,0.17l-0.482,0.17l-0.482,0.17l-0.483,0.17l-0.482,0.169l-0.482,0.17l-0.483,0.17l-0.482,0.169l-0.483,0.169l-0.482,0.17l-0.482,0.169l-0.483,0.169l-0.482,0.169l-0.483,0.169l-0.482,0.169l-0.396,0.139l-0.659,0.093l-0.64,0.09l-0.72,0.102l-0.865,0.123l-0.679,0.096l-0.99,0.14l-0.889,0.125l-0.833,0.118l-0.833,0.118l-0.709,0.1l-0.423,0.116l-0.497,0.255l-0.763,0.391l-0.778,0.397l-0.403,0.206l-0.422,0.528l-0.214,0.267l-0.386,0.483l-0.292,0.364l-0.349,0.435l-0.152,0.386l-0.235,0.596l-0.203,0.15l-0.332,0.194l-0.302,0.138l-0.471,-0.02l-0.269,-0.366l-0.285,-0.389l-0.143,-0.156l-0.128,-0.008l-0.473,0.049l-0.57,0.06l-0.672,-0.063l-0.775,-0.074l-0.727,-0.069l-0.362,-0.052l-0.477,-0.252l-0.123,-0.05l-0.125,-0.012l-0.566,-0.006l-0.561,-0.006l-0.562,0.08l-0.538,-0.029l-0.558,0.046l-0.196,0.096l-0.218,-0.005l-0.136,0.085l-0.12,0.04l-0.142,-0.073l-0.174,0.016l-0.256,-0.063l-0.167,-0.165l-0.158,-0.145l-0.163,-0.08l-0.182,-0.05l-0.158,-0.001l-0.202,0.088l-0.123,0.085l-0.312,0.285l-0.013,0.102l0.142,0.17l-0.043,0.08l-0.184,0.1l-0.057,0.269l-0.027,0.147l-0.027,0.352l0.082,0.277l0.109,0.102l0.005,0.119l-0.06,0.238l-0.169,0.073l-0.124,0.226l-0.076,0.105l-0.132,0.12l-0.525,0.399l-0.026,-0.232l-0.167,-0.344l-0.012,-0.243l-0.078,-0.244l-0.144,-0.188l-0.266,-0.196l-0.024,-0.266l-0.194,-0.263l-0.257,-0.212l-0.143,-0.392l-0.108,-0.521l-0.678,-0.686l-0.848,-0.634l-0.258,-0.357l-0.422,-0.729l-0.213,-0.577l-0.567,-0.665l-0.024,-0.256l-0.084,-0.312l-0.131,-0.348l-0.079,-0.274l-0.569,-1.206l-0.184,-0.192l-0.158,-0.27l-0.041,-0.209l-0.05,-0.114l-0.402,-0.198l-0.375,-0.508l-1.127,-0.81l-0.552,-0.081l-0.437,-0.29l-0.322,-0.379l-0.343,-0.654l-0.604,-0.708l-0.512,-1.006l0.161,-0.367l-0.01,-0.258l-0.158,-0.435l-0.171,-0.336l-0.118,-0.318l0.093,-0.457l0.036,-0.512l0.101,-0.272l0.073,-0.299l-0.095,-0.602l-0.17,-0.323l0.017,-0.215l-0.193,-0.105l-0.156,-0.234l0.163,0l-0.296,-0.325l-0.109,-0.181l-0.112,-0.442l-0.143,-0.338l-0.459,-0.768l-0.22,-0.469l-0.492,-0.607l-0.534,-0.449l-0.339,-0.204l-0.164,-0.186l-0.277,-0.006l-0.302,-0.266l-0.211,-0.01l-0.267,-0.043l-0.314,-0.513l-0.259,-0.481l-0.442,-0.627l0.111,-0.164l0.129,-0.267l-0.064,-0.35l-0.07,-0.238l-0.195,-0.434l-0.641,-1.082l-0.17,-0.159l-0.273,-0.183l-0.168,-0.47l-0.077,-0.422l-0.439,-0.205l-0.755,-1.526l-0.438,-0.535l-0.173,-0.36l-0.506,-0.593l-0.249,-0.591l-0.51,-0.546l-0.442,-0.949l-0.683,-0.951l-0.287,-0.165l-0.704,-0.068l-0.296,-0.07l-0.272,0.209l-0.024,-0.265l0.188,-0.367l0.271,-0.772l0.054,-0.678l0.426,-2.022l0.598,0.104l0.492,0.086l0.719,0.126l0.744,0.13l0.435,0.076l0.149,-0.033l0.602,-0.496l0.542,-0.448l0.325,-0.549l0.314,-0.533l0.144,-0.11l0.482,-0.1l0.765,-0.159l0.757,-0.157l0.061,-0.054l0.176,-0.429l0.224,-0.545l0.046,-0.057l0.055,-0.056l0.542,-0.306l0.329,-0.186l-0.469,-0.549l-0.442,-0.519l-0.496,-0.582l-0.42,-0.454l-0.629,-0.68l-0.412,-0.446l0.721,-0.212l0.78,-0.229l0.787,-0.231l0.947,-0.278l0.741,-0.218l1.106,-0.326l0.541,-0.159l0.098,-0.042l0.416,-0.386l0.626,0.108l0.941,0.163l0.909,0.156l0.958,0.185l0.307,0.15l0.925,0.552l0.601,0.358l0.702,0.417l0.877,0.521l0.602,0.357l0.771,0.457l0.601,0.521l0.761,0.659l0.836,0.722l0.688,0.56l0.948,0.77l0.934,0.757l0.915,0.739l0.732,0.591l0.927,0.746l0.072,0.028l0.937,0.084l1.259,0.114l1.265,0.114l1.142,0.103L606.29,377.781zM578.404,388.423l-0.026,0.042l-0.118,-0.109l0.007,-0.239l0.102,-0.136l-0.008,0.186l0.044,0.188L578.404,388.423zM579.264,389.443h-0.074l-0.197,-0.209l-0.115,-0.154l-0.118,-0.104l-0.538,-0.209l-0.073,-0.135l0.082,-0.135l0.058,0.134l0.098,0.079l0.445,0.189l0.496,0.412l0.085,0.034L579.264,389.443zM593.538,415.388l0.217,0.017l-0.09,-0.093l-0.019,-0.045l0.094,-0.134l0.31,0.276l-0.009,0.327l-0.026,0.075l-0.084,-0.07l-0.055,-0.069l-0.017,-0.074l-0.086,-0.08l-0.302,0.052l-0.188,-0.089l-0.269,-0.275l-0.072,-0.199l0.112,-0.039l0.119,-0.096l0.075,-0.157l-0.069,-0.163l0.16,0.026l0.086,0.167l0.017,0.379l0.024,0.08l-0.044,0.087L593.538,415.388z"/>


		<path id="SY" title="Syria" class="land" d="M594.58,351.024L594.58,351.071L594.555,351.192L594.238,351.54L593.808,352.012L593.499,352.31L592.979,352.81L592.59,352.917L591.936,353.097L591.76,353.271L591.596,353.553L591.5,353.938L591.472,354.178L591.455,354.626L591.608,355.091L591.755,355.536L591.774,355.83L591.759,356.119L591.617,356.428L591.462,356.851L591.373,357.328L591.326,358.219L591.325,358.976L591.312,359.099L591.043,359.631L590.729,360.253L590.583,360.396L589.894,360.581L589.142,361.035L588.301,361.542L587.538,362.001L586.737,362.482L585.906,362.98L585.312,363.335L584.517,363.81L583.793,364.263L583.06,364.722L582.502,365.069L581.656,365.618L581.16,365.94L580.431,366.412L579.789,366.827L579.03,367.317L578.078,367.172L577.777,367.087L577.531,366.854L577.35,366.729L576.9,366.601L576.611,366.16L576.438,366.004L576.136,365.934L576.176,365.776L576.332,365.51L576.49,365.22L576.402,365.059L576.373,364.921L576.363,364.757L576.471,364.6L576.42,364.41L576.337,364.22L576.276,364.124L576.276,363.949L576.316,363.815L576.366,363.61L576.494,363.498L576.527,363.381L576.642,363.266L576.795,363.172L576.83,363.097L576.808,363.054L576.654,362.969L576.571,362.82L576.645,362.603L576.694,362.535L576.786,362.429L576.992,362.269L577.153,362.243L577.292,362.242L577.528,362.256L577.711,362.285L577.758,362.243L577.751,362.19L577.525,362.059L577.513,361.954L577.569,361.842L577.729,361.664L577.92,361.534L578.017,361.511L578.235,361.249L578.375,360.956L578.148,360.242L578.012,360.127L577.79,360.029L577.659,360.014L577.649,359.967L577.824,359.786L577.948,359.627L577.811,359.477L577.564,359.406L577.473,359.562L577.157,359.576L576.667,359.574L576.451,358.816L576.418,358.487L576.424,358.106L576.573,357.548L576.503,357.289L576.497,357.114L576.459,356.874L576.072,356.356L576.283,355.4L576.432,355.168L576.642,355.19L577.09,355.462L577.164,355.454L577.3,355.096L577.432,354.975L577.708,354.868L577.787,354.288L577.916,354.177L578.072,354.117L578.312,354.105L578.52,354.071L578.533,353.969L578.241,353.296L578.267,353.125L578.408,352.447L578.497,352.181L578.582,352.094L578.913,352.128L579.376,352.248L579.499,352.443L579.726,352.617L580.065,352.605L580.458,352.638L580.764,352.649L581.009,352.527L581.562,352.299L581.835,352.223L582.084,352.122L582.884,351.748L583.205,351.777L583.424,351.826L583.592,351.886L583.968,352.141L584.279,352.399L584.498,352.476L584.89,352.47L585.457,352.52L586.153,352.516L586.56,352.444L587.079,352.317L588.005,352.012L589.223,351.373L589.939,351.062L590.248,351.025L590.65,351.022L591.052,351.103L591.508,351.161L591.719,351.156L592.212,351.092L592.852,350.962L593.254,350.856L593.74,350.682L594.043,350.392L594.141,350.362L594.267,350.415L594.326,350.435L594.45,350.599z"/>
	</g>
</svg>