<?xml version="1.0"?>
<svg xmlns="http://www.w3.org/2000/svg" viewBox="0 0 50 50">
    <path style="line-height:normal;text-indent:0;text-align:start;text-decoration-line:none;text-decoration-style:solid;text-decoration-color:#000;text-transform:none;block-progression:tb;isolation:auto;mix-blend-mode:normal" d="M 3 4 A 1.0001 1.0001 0 0 0 2 5 L 2 39 A 1.0001 1.0001 0 0 0 2.5214844 39.876953 L 13.521484 45.876953 A 1.0001 1.0001 0 0 0 14.478516 45.876953 L 25.019531 40.128906 L 36.552734 45.894531 A 1.0001 1.0001 0 0 0 37.513672 45.857422 L 47.513672 39.857422 A 1.0001 1.0001 0 0 0 48 39 L 48 5 A 1.0001 1.0001 0 0 0 46.486328 4.1425781 L 36.957031 9.859375 L 25.447266 4.1054688 A 1.0001 1.0001 0 0 0 24.521484 4.1230469 L 14 9.8613281 L 3.4785156 4.1230469 A 1.0001 1.0001 0 0 0 3 4 z M 25.019531 6.1289062 L 36.552734 11.894531 A 1.0001 1.0001 0 0 0 37.513672 11.857422 L 46 6.765625 L 46 38.433594 L 36.957031 43.859375 L 25.447266 38.105469 A 1.0001 1.0001 0 0 0 24.521484 38.123047 L 14 43.861328 L 4 38.40625 L 4 6.6835938 L 13.521484 11.876953 A 1.0001 1.0001 0 0 0 14.478516 11.876953 L 25.019531 6.1289062 z M 17 15 L 11 16 L 9 16 L 7 18 L 7 19 L 9 19 L 10 23 L 13 26 L 12 28 L 14 30 L 15 35 L 17 36 L 18 31 L 19 30 L 20 28 L 18 26 L 14 25 L 14 23 L 17 20 L 18 19 L 16 17 L 17 16 L 17 15 z M 19 15 L 18 17 L 19 19 L 22 17 L 22 15 L 19 15 z M 34 16 L 27 17 L 24 19 L 24 22 L 27 20 L 27 21 L 23 24 L 22 27 L 25 29 L 26 34 L 28 36 L 31 30 L 31 28 L 29 25 L 27 24 L 29 24 L 31 26 L 34 24 L 35 26 L 36 24 L 38 26 L 39 24 L 41 22 L 40 19 L 43 17 L 34 16 z M 41 29 L 37 31 L 37 33 L 39 33 L 41 35 L 42 32 L 41 29 z" font-weight="400" font-family="sans-serif" white-space="normal" overflow="visible"/>
</svg>
